<svg xmlns="http://www.w3.org/2000/svg" width="90" height="90" viewBox="0 0 90 90" fill="none">
  <path fill-rule="evenodd" clip-rule="evenodd" d="M44.8883 7.5C24.2135 7.5 7.5 24.6875 7.5 45.9508C7.5 62.9477 18.2089 77.3352 33.065 82.4273C34.9224 82.8102 35.6028 81.6 35.6028 80.582C35.6028 79.6906 35.5416 76.6352 35.5416 73.4516C25.1411 75.7437 22.9753 68.868 22.9753 68.868C21.3038 64.4117 18.8273 63.2664 18.8273 63.2664C15.4232 60.9109 19.0753 60.9109 19.0753 60.9109C22.8513 61.1656 24.8327 64.8578 24.8327 64.8578C28.1747 70.7141 33.5602 69.0594 35.7268 68.0406C36.036 65.5578 37.027 63.8391 38.0793 62.8844C29.7842 61.993 21.0566 58.6828 21.0566 43.9133C21.0566 39.7117 22.5413 36.2742 24.8939 33.6008C24.5227 32.6461 23.2224 28.6984 25.2658 23.4148C25.2658 23.4148 28.4227 22.3961 35.5408 27.3617C38.5883 26.52 41.7312 26.0919 44.8883 26.0883C48.0452 26.0883 51.2633 26.5344 54.2349 27.3617C61.3538 22.3961 64.5107 23.4148 64.5107 23.4148C66.5541 28.6984 65.2531 32.6461 64.8819 33.6008C67.2964 36.2742 68.7199 39.7117 68.7199 43.9133C68.7199 58.6828 59.9923 61.9289 51.6352 62.8844C52.9974 64.0937 54.173 66.3852 54.173 70.0141C54.173 75.1703 54.1117 79.3086 54.1117 80.5812C54.1117 81.6 54.7929 82.8102 56.6495 82.4281C71.5056 77.3344 82.2145 62.9477 82.2145 45.9508C82.2758 24.6875 65.501 7.5 44.8883 7.5Z" fill="black"/>
</svg>